<svg width="520" height="120" viewBox="0 0 520 120" fill="none" xmlns="http://www.w3.org/2000/svg" role="img" aria-labelledby="title desc">
  <title id="title">JST Sports Agency White Logo</title>
  <desc id="desc">Premium JST Sports Agency wordmark in white color.</desc>
  <rect width="520" height="120" fill="transparent"/>
  <path d="M34 27H94V41H72V92H56V41H34V27Z" fill="#FFFFFF"/>
  <path d="M111 27H171V41H127V54H164V68H127V78H173V92H111V27Z" fill="#FFFFFF"/>
  <path d="M198 27H258V41H214V54H252V68H214V92H198V27Z" fill="#FFFFFF"/>
  <path d="M283 27H299V78H340V92H283V27Z" fill="#FFFFFF"/>
  <path d="M362 27H424V41H378V54H420V68H378V78H426V92H362V27Z" fill="#FFFFFF"/>
  <path d="M456 27H472V92H456V27Z" fill="#FFFFFF"/>
  <path d="M22 100H486" stroke="#B8182D" stroke-width="5"/>
  <text x="31" y="113" fill="#D9DEE5" font-family="Arial, Helvetica, sans-serif" font-size="11" font-weight="700" letter-spacing="5">GLOBAL SPORTS MANAGEMENT</text>
</svg>
